<?xml version="1.0" encoding="UTF-8"?>
<svg version="1.1" xmlns="http://www.w3.org/2000/svg" width="64" height="69">
<path d="M0 0 C21.12 0 42.24 0 64 0 C64 22.77 64 45.54 64 69 C42.88 69 21.76 69 0 69 C0 46.23 0 23.46 0 0 Z " fill="#FCFCFB" transform="translate(0,0)"/>
<path d="M0 0 C1.5625 1.25 1.5625 1.25 3 3 C2.58984375 5.109375 2.58984375 5.109375 2 7 C3.02480469 6.94199219 4.04960937 6.88398438 5.10546875 6.82421875 C6.46610011 6.77730043 7.82678096 6.73180248 9.1875 6.6875 C9.86103516 6.64560547 10.53457031 6.60371094 11.22851562 6.56054688 C15.15910165 6.46467892 16.8211256 6.86082296 19.95703125 9.30078125 C22 12 22 12 22.5 15.5 C21.97680228 19.16238406 21.2441898 21.09086508 19 24 C18.01 24.66 17.02 25.32 16 26 C17.34981647 29.03708705 18.83916739 31.03741247 21.25 33.3125 C23.69088934 35.66747812 25.92277947 38.05660352 28.0625 40.6875 C31.91304834 45.24466493 35.94932406 48.28815577 42 49 C42 49.33 42 49.66 42 50 C35.8356017 50.42513092 32.90418653 50.10350301 28 46 C20.38354166 38.87357115 13.6282874 31.03428775 7 23 C7.66 25.64 8.32 28.28 9 31 C8.01 31 7.02 31 6 31 C6.144375 32.27875 6.28875 33.5575 6.4375 34.875 C6.51871094 35.59429687 6.59992187 36.31359375 6.68359375 37.0546875 C6.91292961 39.07404316 6.91292961 39.07404316 8 41 C6.02 41 4.04 41 2 41 C2 38.36 2 35.72 2 33 C0.35 33 -1.3 33 -3 33 C-2.835 32.4225 -2.67 31.845 -2.5 31.25 C-1.78085351 28.01384081 -1.73126816 25.61650246 -3.0625 22.5625 C-4.15455517 19.57754921 -3.86014763 18.0105167 -3 15 C-1.02 14.34 0.96 13.68 3 13 C2.72382467 11.05925139 2.72382467 11.05925139 2 9 C1.01 8.34 0.02 7.68 -1 7 C-0.67 4.69 -0.34 2.38 0 0 Z " fill="#D6C571" transform="translate(18,11)"/>
<path d="M0 0 C0.66 0.33 1.32 0.66 2 1 C2 1.66 2 2.32 2 3 C2.86625 3.0309375 2.86625 3.0309375 3.75 3.0625 C6.74229919 4.30929133 7.76784212 6.27592027 9.25 9.078125 C10.30285915 11.77607657 10.27850307 14.14534357 10 17 C9.24976563 16.27876953 9.24976563 16.27876953 8.484375 15.54296875 C5.16328603 13.48034274 2.05182084 13.43826912 -1.75 13.3125 C-2.44738281 13.27833984 -3.14476563 13.24417969 -3.86328125 13.20898438 C-5.57497108 13.12691705 -7.2874576 13.06177081 -9 13 C-8.979375 12.195625 -8.95875 11.39125 -8.9375 10.5625 C-8.70366379 8.06645115 -8.70366379 8.06645115 -10 7 C-10.33 8.98 -10.66 10.96 -11 13 C-10.01 13.66 -9.02 14.32 -8 15 C-8 16.32 -8 17.64 -8 19 C-11 21 -11 21 -14 21 C-14.19622241 25.21878192 -13.80230168 28.17010894 -12 32 C-12.66 32 -13.32 32 -14 32 C-14.474375 31.195625 -14.94875 30.39125 -15.4375 29.5625 C-16.79983672 26.7081924 -16.79983672 26.7081924 -20 26 C-20 23.36 -20 20.72 -20 18 C-19.34 18 -18.68 18 -18 18 C-18.33 17.01 -18.66 16.02 -19 15 C-19 12.66666667 -19 10.33333333 -19 8 C-18.67 8.66 -18.34 9.32 -18 10 C-16.68 10 -15.36 10 -14 10 C-14 8.02 -14 6.04 -14 4 C-9.38 3.67 -4.76 3.34 0 3 C0 2.01 0 1.02 0 0 Z " fill="#C8C8C3" transform="translate(29,5)"/>
<path d="M0 0 C2.72914694 3.11902507 3.2384473 5.54201366 3 9.5625 C2.48977841 12.71850982 2.04116912 13.94555051 0.0625 16.5625 C-4.34988929 18.6336215 -8.2150174 18.88639842 -13 18 C-16.125 16 -16.125 16 -18 13 C-18.77653117 8.70820405 -18.4674097 5.70111454 -16 2 C-12.9375 1.25 -12.9375 1.25 -10 1 C-9 2 -9 2 -8.875 4.9375 C-9 8 -9 8 -10 10 C-8.35 9.67 -6.7 9.34 -5 9 C-5.33 8.67 -5.66 8.34 -6 8 C-6.14115161 5.32941149 -6.04247107 2.67567762 -6 0 C-3 -1 -3 -1 0 0 Z " fill="#E5DDA8" transform="translate(30,42)"/>
<path d="M0 0 C1.5625 1.25 1.5625 1.25 3 3 C2.58984375 5.109375 2.58984375 5.109375 2 7 C3.02480469 6.94199219 4.04960937 6.88398438 5.10546875 6.82421875 C6.46610011 6.77730043 7.82678096 6.73180248 9.1875 6.6875 C9.86103516 6.64560547 10.53457031 6.60371094 11.22851562 6.56054688 C15.15910165 6.46467892 16.8211256 6.86082296 19.95703125 9.30078125 C22 12 22 12 22.5 15.5 C21.97680228 19.16238406 21.2441898 21.09086508 19 24 C18.01 24.66 17.02 25.32 16 26 C17.34981647 29.03708705 18.83916739 31.03741247 21.25 33.3125 C23.69088934 35.66747812 25.92277947 38.05660352 28.0625 40.6875 C31.91304834 45.24466493 35.94932406 48.28815577 42 49 C42 49.33 42 49.66 42 50 C35.8356017 50.42513092 32.90418653 50.10350301 28 46 C20.73723849 39.20451175 14.12112909 31.83504523 8 24 C8.84884766 23.80083984 8.84884766 23.80083984 9.71484375 23.59765625 C10.81505859 23.33275391 10.81505859 23.33275391 11.9375 23.0625 C12.66839844 22.88847656 13.39929688 22.71445312 14.15234375 22.53515625 C15.99969898 22.16112431 15.99969898 22.16112431 17 21 C17.07226502 19.14712498 17.0838122 17.29166122 17.0625 15.4375 C17.041875 13.643125 17.02125 11.84875 17 10 C13.37 9.67 9.74 9.34 6 9 C6 10.32 6 11.64 6 13 C5.01 13 4.02 13 3 13 C2.896875 12.38125 2.79375 11.7625 2.6875 11.125 C2.12474627 8.63473516 2.12474627 8.63473516 -1 7 C-0.67 4.69 -0.34 2.38 0 0 Z " fill="#222021" transform="translate(18,11)"/>
<path d="M0 0 C1.32 0.33 2.64 0.66 4 1 C3.01 1.495 3.01 1.495 2 2 C5.3 5.3 8.6 8.6 12 12 C11.01 12.495 11.01 12.495 10 13 C9.53045739 16.04581269 9.53045739 16.04581269 9.375 19.5625 C9.25125 21.686875 9.1275 23.81125 9 26 C13.62 26.66 18.24 27.32 23 28 C23 28.66 23 29.32 23 30 C10.13 30.99 10.13 30.99 -3 32 C-3 31.34 -3 30.68 -3 30 C-6.3 30 -9.6 30 -13 30 C-13 29.34 -13 28.68 -13 28 C-12.360625 27.87625 -11.72125 27.7525 -11.0625 27.625 C-10.381875 27.41875 -9.70125 27.2125 -9 27 C-8.67 26.34 -8.34 25.68 -8 25 C-7.32453125 25.03480469 -6.6490625 25.06960937 -5.953125 25.10546875 C-5.06109375 25.13253906 -4.1690625 25.15960938 -3.25 25.1875 C-2.36828125 25.22230469 -1.4865625 25.25710937 -0.578125 25.29296875 C2.53799319 24.93886441 3.81339047 24.23113326 6 22 C7.29225126 18.03412545 7.25609214 14.09421186 6.3125 10.0625 C4.79111745 7.67175599 3.60856387 7.00976666 1 6 C0 5 0 5 -0.0625 2.4375 C-0.041875 1.633125 -0.02125 0.82875 0 0 Z " fill="#FCF7D8" transform="translate(25,34)"/>
<path d="M0 0 C0.66 0 1.32 0 2 0 C2.103125 1.11375 2.20625 2.2275 2.3125 3.375 C2.6528125 5.169375 2.6528125 5.169375 3 7 C3.99 7.66 4.98 8.32 6 9 C6 10.32 6 11.64 6 13 C3 15 3 15 0 15 C-0.19622241 19.21878192 0.19769832 22.17010894 2 26 C1.34 26 0.68 26 0 26 C-0.474375 25.195625 -0.94875 24.39125 -1.4375 23.5625 C-2.79983672 20.7081924 -2.79983672 20.7081924 -6 20 C-6 17.36 -6 14.72 -6 12 C-5.34 12 -4.68 12 -4 12 C-4.33 11.01 -4.66 10.02 -5 9 C-5 6.66666667 -5 4.33333333 -5 2 C-4.67 2.66 -4.34 3.32 -4 4 C-2.68 4 -1.36 4 0 4 C0 2.68 0 1.36 0 0 Z " fill="#CFCFCA" transform="translate(15,11)"/>
<path d="M0 0 C0.99 0 1.98 0 3 0 C3.04898437 0.89203125 3.09796875 1.7840625 3.1484375 2.703125 C3.22320312 3.87359375 3.29796875 5.0440625 3.375 6.25 C3.44460937 7.41015625 3.51421875 8.5703125 3.5859375 9.765625 C3.96248308 12.70694334 4.4774123 14.49949011 6 17 C5.01 17 4.02 17 3 17 C3.144375 18.27875 3.28875 19.5575 3.4375 20.875 C3.51871094 21.59429687 3.59992187 22.31359375 3.68359375 23.0546875 C3.91292961 25.07404316 3.91292961 25.07404316 5 27 C3.02 27 1.04 27 -1 27 C-1 24.36 -1 21.72 -1 19 C-2.65 19 -4.3 19 -6 19 C-5.835 18.4225 -5.67 17.845 -5.5 17.25 C-4.85537969 14.73335631 -4.85537969 14.73335631 -5 11 C-5 8.33333333 -5 5.66666667 -5 3 C-2.64046906 5.35953094 -2.50858587 6.77895617 -2 10 C-1.34 10 -0.68 10 0 10 C0 6.7 0 3.4 0 0 Z " fill="#E2C835" transform="translate(21,25)"/>
<path d="M0 0 C2.234375 -0.2734375 2.234375 -0.2734375 5 0 C7.140625 1.8359375 7.140625 1.8359375 9.25 4.375 C10.02472656 5.2825 10.79945312 6.19 11.59765625 7.125 C12.39042969 8.07375 13.18320312 9.0225 14 10 C22.22468338 20.27510045 22.22468338 20.27510045 34 25 C34 25.33 34 25.66 34 26 C27.8356017 26.42513092 24.90418653 26.10350301 20 22 C12.73723849 15.20451175 6.12112909 7.83504523 0 0 Z " fill="#131212" transform="translate(26,35)"/>
<path d="M0 0 C0.125 2.875 0.125 2.875 0 6 C-0.66 6.66 -1.32 7.32 -2 8 C0.64 8.33 3.28 8.66 6 9 C6 9.66 6 10.32 6 11 C5.34 11 4.68 11 4 11 C4 11.66 4 12.32 4 13 C-0.34263862 13.16702456 -3.20960634 13.12999997 -7 11 C-7.0270043 9.54176788 -7.04639787 8.08339325 -7.0625 6.625 C-7.07410156 5.81289063 -7.08570313 5.00078125 -7.09765625 4.1640625 C-7 2 -7 2 -6 0 C-3 -1 -3 -1 0 0 Z " fill="#FDFCF5" transform="translate(21,44)"/>
<path d="M0 0 C7.38804781 -0.36334661 7.38804781 -0.36334661 10 1.1875 C11.41113901 3.74518945 11.56152444 5.12218727 11 8 C8.24746868 10.99540173 6.77312715 11.94165078 2.6875 12.25 C1.800625 12.1675 0.91375 12.085 0 12 C0 10.02 0 8.04 0 6 C0.66 6 1.32 6 2 6 C2 6.66 2 7.32 2 8 C2.99 8 3.98 8 5 8 C4.34 6.68 3.68 5.36 3 4 C2.01 4 1.02 4 0 4 C0 2.68 0 1.36 0 0 Z " fill="#DAD9D5" transform="translate(25,20)"/>
<path d="M0 0 C2.64 0 5.28 0 8 0 C8.268125 0.969375 8.53625 1.93875 8.8125 2.9375 C9.204375 3.948125 9.59625 4.95875 10 6 C10.99 6.33 11.98 6.66 13 7 C13 7.99 13 8.98 13 10 C13.66 10.66 14.32 11.32 15 12 C15.51953125 14.05859375 15.51953125 14.05859375 15.8125 16.4375 C15.97685547 17.61119141 15.97685547 17.61119141 16.14453125 18.80859375 C16 21 16 21 14.51171875 22.78515625 C14.01285156 23.18605469 13.51398437 23.58695313 13 24 C11.68897038 21.11573483 10.97742112 18.79679009 10.625 15.625 C9.85760679 11.17411937 8.53282821 8.72474736 6 5 C5.01 4.67 4.02 4.34 3 4 C1.3125 1.9375 1.3125 1.9375 0 0 Z " fill="#DEDADD" transform="translate(28,4)"/>
<path d="M0 0 C2.64 0 5.28 0 8 0 C12 6.75 12 6.75 12 9 C8.04 8.67 4.08 8.34 0 8 C0 5.36 0 2.72 0 0 Z " fill="#E0DECE" transform="translate(25,10)"/>
<path d="M0 0 C0.33 0.66 0.66 1.32 1 2 C1.99 2 2.98 2 4 2 C3.90460937 2.61488281 3.80921875 3.22976562 3.7109375 3.86328125 C3.60007812 4.67152344 3.48921875 5.47976562 3.375 6.3125 C3.25898438 7.11300781 3.14296875 7.91351563 3.0234375 8.73828125 C2.78466593 11.28723215 2.78466593 11.28723215 5 14 C5 15.66666667 5 17.33333333 5 19 C5.92745649 21.73774618 5.92745649 21.73774618 7 24 C6.34 24 5.68 24 5 24 C4.525625 23.195625 4.05125 22.39125 3.5625 21.5625 C2.20016328 18.7081924 2.20016328 18.7081924 -1 18 C-1 15.36 -1 12.72 -1 10 C-0.34 10 0.32 10 1 10 C0.67 9.01 0.34 8.02 0 7 C0 4.66666667 0 2.33333333 0 0 Z " fill="#DCDCDA" transform="translate(10,13)"/>
<path d="M0 0 C2.72914694 3.11902507 3.2384473 5.54201366 3 9.5625 C2.48576642 12.81029104 2.06264458 13.92216886 -0.0625 16.5625 C-4.00249574 18.49058302 -6.64682942 18.29513021 -11 18 C-11 17.67 -11 17.34 -11 17 C-9.906875 16.731875 -8.81375 16.46375 -7.6875 16.1875 C-3.55027317 15.03170284 -3.55027317 15.03170284 -1 12 C-0.33292452 8.58500409 -0.33292452 8.58500409 -1 5 C-3.35418376 2.06026719 -3.35418376 2.06026719 -6 0 C-3 -1 -3 -1 0 0 Z " fill="#E6CC3B" transform="translate(30,42)"/>
<path d="M0 0 C1.32 0.33 2.64 0.66 4 1 C3.01 1.495 3.01 1.495 2 2 C5.3 5.3 8.6 8.6 12 12 C11.01 12.495 11.01 12.495 10 13 C9.67 13.66 9.34 14.32 9 15 C5 10.25 5 10.25 5 8 C4.0409375 7.5359375 4.0409375 7.5359375 3.0625 7.0625 C1 6 1 6 0 5 C-0.04063832 3.33382885 -0.042721 1.66611905 0 0 Z " fill="#EBE7C9" transform="translate(25,34)"/>
<path d="M0 0 C0.99 0.66 1.98 1.32 3 2 C2.63802104 4.62434747 2.17343943 5.82013689 0.3125 7.75 C-2.60427292 9.32663401 -4.73290013 9.22275681 -8 9 C-8 7.02 -8 5.04 -8 3 C-7.34 3 -6.68 3 -6 3 C-6 3.66 -6 4.32 -6 5 C-4.35 5 -2.7 5 -1 5 C-1.33 4.67 -1.66 4.34 -2 4 C-1.34 3.67 -0.68 3.34 0 3 C0 2.01 0 1.02 0 0 Z " fill="#E9E5E3" transform="translate(33,23)"/>
<path d="M0 0 C0.99 1.32 1.98 2.64 3 4 C6.73487777 3.5020163 8.81237635 3.12508244 12 1 C11.6875 3.375 11.6875 3.375 11 6 C7.1496895 8.56687367 5.41430237 7.83288724 1 7 C0.67 8.32 0.34 9.64 0 11 C0 7.37 0 3.74 0 0 Z " fill="#BAB9B7" transform="translate(24,27)"/>
<path d="M0 0 C1.5625 1.25 1.5625 1.25 3 3 C2.67 4.32 2.34 5.64 2 7 C5.96 7 9.92 7 14 7 C14 7.33 14 7.66 14 8 C11.36 8 8.72 8 6 8 C6 9.65 6 11.3 6 13 C5.01 13 4.02 13 3 13 C2.896875 12.38125 2.79375 11.7625 2.6875 11.125 C2.12474627 8.63473516 2.12474627 8.63473516 -1 7 C-0.67 4.69 -0.34 2.38 0 0 Z " fill="#0E0F0A" transform="translate(18,11)"/>
<path d="M0 0 C0.33 0.66 0.66 1.32 1 2 C3.02463255 2.65213292 3.02463255 2.65213292 5 3 C5 3.33 5 3.66 5 4 C-0.6556294 5.34844868 -6.2190275 6.36934845 -12 7 C-11.67 6.01 -11.34 5.02 -11 4 C-7.71023192 2.90341064 -6.28696233 3.20046862 -3 4 C-3 3.34 -3 2.68 -3 2 C-3.99 1.67 -4.98 1.34 -6 1 C-3 0 -3 0 0 0 Z " fill="#DEDEDE" transform="translate(24,4)"/>
<path d="M0 0 C0.99 0.33 1.98 0.66 3 1 C3.06058594 1.62648437 3.12117188 2.25296875 3.18359375 2.8984375 C3.26738281 3.71570312 3.35117187 4.53296875 3.4375 5.375 C3.55931641 6.59316406 3.55931641 6.59316406 3.68359375 7.8359375 C3.89090114 10.04272805 3.89090114 10.04272805 5 12 C3.02 12 1.04 12 -1 12 C-0.67 8.04 -0.34 4.08 0 0 Z " fill="#10100B" transform="translate(21,40)"/>
<path d="M0 0 C0.99 0 1.98 0 3 0 C3 4.29 3 8.58 3 13 C2.01 12.34 1.02 11.68 0 11 C-0.29296875 8.3984375 -0.29296875 8.3984375 -0.1875 5.375 C-0.16042969 4.37210938 -0.13335938 3.36921875 -0.10546875 2.3359375 C-0.07066406 1.56507812 -0.03585938 0.79421875 0 0 Z " fill="#191006" transform="translate(21,25)"/>
<path d="M0 0 C0.25 2.8125 0.25 2.8125 0 6 C-2 7.875 -2 7.875 -4 9 C-4.144375 8.030625 -4.28875 7.06125 -4.4375 6.0625 C-4.67562341 3.13513227 -4.67562341 3.13513227 -6 2 C-6 1.34 -6 0.68 -6 0 C-3 -1 -3 -1 0 0 Z " fill="#F2F2ED" transform="translate(21,44)"/>
<path d="M0 0 C2.64 0 5.28 0 8 0 C8.66 1.98 9.32 3.96 10 6 C9.34 6 8.68 6 8 6 C7.67 6.66 7.34 7.32 7 8 C6.67 7.01 6.34 6.02 6 5 C5.01 4.67 4.02 4.34 3 4 C1.3125 1.9375 1.3125 1.9375 0 0 Z " fill="#EBEAE9" transform="translate(28,4)"/>
<path d="M0 0 C6.1105424 -0.11269443 11.95170514 0.10395632 18 1 C18 1.33 18 1.66 18 2 C15.75067773 2.1954625 13.50049858 2.38108226 11.25 2.5625 C9.37054688 2.71912109 9.37054688 2.71912109 7.453125 2.87890625 C4.60547636 2.97876723 2.65713933 2.90584295 0 2 C0 1.34 0 0.68 0 0 Z " fill="#F5F1C9" transform="translate(30,62)"/>
<path d="M0 0 C0.99 0.66 1.98 1.32 3 2 C3.1875 4.625 3.1875 4.625 3 7 C1.02 7 -0.96 7 -3 7 C-2.38722388 4.03824877 -1.74627478 2.61941217 0 0 Z " fill="#A6A493" transform="translate(18,37)"/>
<path d="M0 0 C3.3566285 2.23775234 3.57996014 2.93320048 4.6875 6.625 C4.93886719 7.44226562 5.19023437 8.25953125 5.44921875 9.1015625 C5.72185547 10.04128906 5.72185547 10.04128906 6 11 C5.34 11 4.68 11 4 11 C3.525625 10.195625 3.05125 9.39125 2.5625 8.5625 C1.20016328 5.7081924 1.20016328 5.7081924 -2 5 C-2 4.01 -2 3.02 -2 2 C-1.34 2 -0.68 2 0 2 C0 1.34 0 0.68 0 0 Z " fill="#EEEDDF" transform="translate(11,26)"/>
<path d="M0 0 C1.67542976 0.28604898 3.34385343 0.61781233 5 1 C4.67 2.32 4.34 3.64 4 5 C2.68 5.33 1.36 5.66 0 6 C-0.38218767 4.34385343 -0.71395102 2.67542976 -1 1 C-0.67 0.67 -0.34 0.34 0 0 Z " fill="#DDC348" transform="translate(29,10)"/>
<path d="M0 0 C0.99 0 1.98 0 3 0 C1.63016497 3.16115776 1.0109362 3.9927092 -2 6 C-4.04296875 6.1953125 -4.04296875 6.1953125 -6.1875 6.125 C-8.0746875 6.063125 -8.0746875 6.063125 -10 6 C-10 5.67 -10 5.34 -10 5 C-8.906875 4.731875 -7.81375 4.46375 -6.6875 4.1875 C-3.21307994 3.06861896 -2.30547678 2.53602446 0 0 Z " fill="#EACC4E" transform="translate(29,54)"/>
<path d="M0 0 C2.96175123 0.61277612 4.38058783 1.25372522 7 3 C8.65549531 3.38499891 10.3222433 3.72793135 12 4 C12 4.33 12 4.66 12 5 C6.60550707 5.27429625 3.48074195 5.36055646 -1 2 C-0.67 1.34 -0.34 0.68 0 0 Z " fill="#1D1D1E" transform="translate(48,56)"/>
<path d="M0 0 C0.66 0 1.32 0 2 0 C2 2.31 2 4.62 2 7 C0.35 7 -1.3 7 -3 7 C-3 5.68 -3 4.36 -3 3 C-2.01 3 -1.02 3 0 3 C0 2.01 0 1.02 0 0 Z " fill="#70716E" transform="translate(23,11)"/>
<path d="M0 0 C1.485 0.99 1.485 0.99 3 2 C2.67 3.98 2.34 5.96 2 8 C1.01 8 0.02 8 -1 8 C-0.67 5.36 -0.34 2.72 0 0 Z " fill="#E7E7E7" transform="translate(41,19)"/>
<path d="M0 0 C0.33 0 0.66 0 1 0 C1 2.97 1 5.94 1 9 C0.34 9 -0.32 9 -1 9 C-1.33 6.69 -1.66 4.38 -2 2 C-1.34 2 -0.68 2 0 2 C0 1.34 0 0.68 0 0 Z " fill="#DED0AF" transform="translate(20,26)"/>
<path d="M0 0 C3 1 3 1 5 4 C5.125 7.1875 5.125 7.1875 5 10 C1.55783328 7.3401439 1.00495326 4.09711714 0 0 Z " fill="#B8B5B5" transform="translate(34,12)"/>
<path d="M0 0 C1.32 0.33 2.64 0.66 4 1 C3.01 1.495 3.01 1.495 2 2 C3.32 3.65 4.64 5.3 6 7 C4.02 6.34 2.04 5.68 0 5 C0 3.35 0 1.7 0 0 Z " fill="#EEEEDD" transform="translate(25,34)"/>
<path d="M0 0 C0.66 0 1.32 0 2 0 C2 0.66 2 1.32 2 2 C2.99 2 3.98 2 5 2 C5 2.99 5 3.98 5 5 C3.35 5.33 1.7 5.66 0 6 C0 4.02 0 2.04 0 0 Z " fill="#E4DCCA" transform="translate(25,26)"/>
<path d="M0 0 C2.475 0.495 2.475 0.495 5 1 C5 2.32 5 3.64 5 5 C3.68 5 2.36 5 1 5 C0.67 3.35 0.34 1.7 0 0 Z " fill="#F0F0F0" transform="translate(10,10)"/>
<path d="M0 0 C1.485 0.99 1.485 0.99 3 2 C3 3.32 3 4.64 3 6 C1.68 5.67 0.36 5.34 -1 5 C-0.67 3.35 -0.34 1.7 0 0 Z " fill="#FCF6F9" transform="translate(26,46)"/>
<path d="M0 0 C0.33 0.99 0.66 1.98 1 3 C1.66 3.33 2.32 3.66 3 4 C2.67 5.32 2.34 6.64 2 8 C1.01 8 0.02 8 -1 8 C-0.67 5.36 -0.34 2.72 0 0 Z " fill="#F0F0F0" transform="translate(9,15)"/>
<path d="M0 0 C1.5625 1.1875 1.5625 1.1875 3 3 C2.6875 5.6875 2.6875 5.6875 2 8 C1.01 7.67 0.02 7.34 -1 7 C-0.67 4.69 -0.34 2.38 0 0 Z " fill="#303130" transform="translate(18,11)"/>
</svg>
